<svg width="195" height="190" viewBox="0 0 195 190" fill="none" xmlns="http://www.w3.org/2000/svg">
<path d="M10.9265 -7.77741e-06V9.92443V15.3625L11.0346 15.1357C11.0346 15.2113 11.041 15.287 11.0436 15.3625H10.9268V25.287C10.9268 34.8674 11.8997 43.8698 13.7057 52.3034C14.3074 55.1135 15.0008 57.862 15.7824 60.5488C16.3846 62.6192 17.0819 64.6165 17.7837 66.6098V66.8066L18.3791 68.4125V68.4137C19.3264 70.9707 20.3538 73.4661 21.4558 75.8994C23.2452 79.8503 25.2735 83.591 27.422 87.2137V87.3961L28.897 89.7485V89.7498C30.9872 93.0855 33.2546 96.235 35.5993 99.2914V99.4606L37.7803 102.144V102.145C38.7173 103.299 39.6753 104.426 40.6434 105.54L0.0546926 133.734V149.096L31.1872 190L93.6393 146.618C115.539 159.743 136.288 170.888 149.269 183.297C156.617 190 156.617 190 156.617 190C162.373 184.504 178.526 169.391 184.279 163.902C184.279 163.899 184.293 163.888 184.295 163.886C185.174 163.049 186.038 162.223 186.67 161.62C186.67 161.619 186.705 161.585 186.705 161.585V161.584V161.583C186.705 161.581 186.705 161.581 186.712 161.579L194.055 154.564V139.201L186.712 132.184C183.243 128.868 179.665 125.753 176.016 122.81C163.234 112.499 149.63 104.202 136.66 96.6891H178.379V81.3266V56.0396V40.6771V15.3901V0.0275948H146.218V-7.77741e-06H53.4763H37.6405H10.9265V-7.77741e-06ZM21.3149 9.92443H37.6393H53.475H135.828V9.95203H167.99V40.6771V71.4022H135.828V40.6771H58.2477C58.8067 42.2421 59.4059 43.7664 60.0556 45.2439V45.2451C60.7621 46.8517 61.5222 48.4091 62.332 49.9211V49.9224C63.1419 51.4344 64.0033 52.9014 64.9125 54.3283V54.3296C65.8217 55.7565 66.7799 57.1429 67.7843 58.4943V58.4956C68.7887 59.847 69.8397 61.1624 70.9352 62.4479V62.4491C77.5094 70.1629 85.6876 76.7738 95.0261 83.3122C116.816 98.5689 145.184 110.927 169.314 130.394C172.761 133.174 176.122 136.1 179.364 139.199C176.84 141.611 176.924 141.531 177.469 141.01C177.422 141.055 177.384 141.091 177.342 141.132C174.871 143.49 162.373 155.419 156.616 160.918V160.919C140.644 145.651 116.932 133.871 93.1957 119.293L33.4797 160.774L14.566 135.924L65.7756 100.353C62.1539 97.3928 58.6292 94.2541 55.2565 90.9107C52.0142 87.6966 48.9097 84.2979 45.9875 80.6994V80.6981C43.0653 77.0997 40.3242 73.3023 37.8102 69.2902V69.289C35.2962 65.2769 33.0074 61.0506 30.9897 56.5957C29.9809 54.3684 29.0399 52.0836 28.1718 49.7402V49.7389C27.3034 47.395 26.5078 44.993 25.7911 42.5293C25.0743 40.0651 24.4369 37.5402 23.8828 34.9524C22.2207 27.1904 21.3149 18.8648 21.3149 9.9247V9.92443ZM88.9268 65.9641H125.441V81.3266V90.2441C116.656 85.2011 108.388 80.3627 101.168 75.3076C96.702 72.1806 92.6154 69.1003 88.9268 65.9641V65.9641Z" fill="white"/>
</svg>
